<?xml version="1.0" encoding="utf-8"?>
<!-- Generator: Adobe Illustrator 25.2.0, SVG Export Plug-In . SVG Version: 6.00 Build 0)  -->
<svg version="1.1" id="Layer_1" xmlns="http://www.w3.org/2000/svg" xmlns:xlink="http://www.w3.org/1999/xlink" x="0px" y="0px"
	 viewBox="0 0 1387.73 201.8" style="enable-background:new 0 0 1387.73 201.8;" xml:space="preserve">
<style type="text/css">
	.st0{fill:#00C3B5;}
	.st1{fill:#81D385;}
	.st2{fill:#FFE243;}
	.st3{fill:#FFA353;}
	.st4{fill:#606060;}
	.st5{fill:#4B4D4B;}
</style>
<g>
	<path class="st0" d="M227.59,194.26c-0.12,0.27-0.25,0.53-0.37,0.8c81.39-20.01,172.59-8.3,210.75-1.72l-66.09-42.27
		C333.47,155.01,277.86,161.55,227.59,194.26"/>
	<path class="st1" d="M340.9,108.96c-0.48,0.19-0.95,0.38-1.44,0.57c-28.62,11.32-66.62,26.38-102.11,65.06
		c-1.37,2.53-2.71,5.15-4.07,7.84c50.63-29.49,104.64-35.04,141.47-38.8c20.91-2.15,38.03-3.89,43.03-9.06L340.9,108.96z"/>
	<path class="st2" d="M385.51,68.24l-52.65,0.07c-6.21,6.08-13.16,11.8-20.58,17.92c-18.32,15.08-39.76,32.76-60.97,64.86
		c30.57-26.41,61.32-38.59,85.54-48.17C362.74,92.68,380.46,85.67,385.51,68.24"/>
	<path class="st3" d="M224.53,168.27v15.8c28.04-57.87,58.43-82.91,83.22-103.33c22.01-18.12,38.29-31.54,44.75-60.72l-88.68,32.63
		c-4.75,27.91-13.69,41.9-21.61,54.27C232.72,121.78,224.53,134.59,224.53,168.27"/>
	<path class="st0" d="M210.37,193.1c0.13,0.27,0.26,0.53,0.38,0.81C129.36,173.88,38.14,185.6,0,192.17l66.09-42.27
		C104.48,153.85,160.09,160.4,210.37,193.1"/>
	<path class="st1" d="M97.06,107.8c0.48,0.19,0.95,0.38,1.44,0.58c28.62,11.31,66.61,26.37,102.11,65.05
		c1.36,2.53,2.71,5.15,4.07,7.84c-50.63-29.49-104.64-35.03-141.47-38.8c-20.91-2.15-38.03-3.89-43.03-9.06L97.06,107.8z"/>
	<path class="st2" d="M52.46,67.09l52.65,0.08c6.21,6.07,13.15,11.79,20.58,17.91c18.32,15.08,39.76,32.76,60.96,64.87
		c-30.56-26.41-61.31-38.59-85.53-48.17C75.22,91.53,57.51,84.52,52.46,67.09"/>
	<path class="st3" d="M213.43,167.11v15.8C185.39,125.05,155,100.02,130.2,79.6c-22-18.13-38.28-31.53-44.74-60.73l88.67,32.63
		c4.75,27.92,13.7,41.9,21.61,54.27C205.23,120.62,213.43,133.43,213.43,167.11"/>
</g>
<path class="st4" d="M1099.29,158.72v5.27c-2.05-0.98-3.99-1.71-5.8-2.19c-1.82-0.48-3.58-0.72-5.27-0.72
	c-2.94,0-5.21,0.57-6.81,1.71c-1.6,1.14-2.39,2.76-2.39,4.87c0,1.77,0.53,3.1,1.59,4c1.06,0.9,3.07,1.63,6.03,2.18l3.26,0.67
	c4.03,0.77,7,2.12,8.92,4.05c1.92,1.93,2.88,4.52,2.88,7.77c0,3.87-1.3,6.8-3.89,8.8c-2.59,2-6.4,3-11.41,3
	c-1.89,0-3.9-0.21-6.03-0.64c-2.13-0.43-4.34-1.06-6.62-1.9v-5.56c2.19,1.23,4.34,2.16,6.45,2.78c2.1,0.62,4.17,0.94,6.21,0.94
	c3.08,0,5.47-0.61,7.14-1.82c1.68-1.21,2.51-2.94,2.51-5.19c0-1.96-0.6-3.49-1.81-4.6c-1.2-1.11-3.18-1.93-5.92-2.49l-3.29-0.64
	c-4.03-0.8-6.95-2.06-8.75-3.77c-1.8-1.71-2.7-4.09-2.7-7.14c0-3.53,1.24-6.31,3.73-8.35c2.49-2.03,5.92-3.05,10.28-3.05
	c1.87,0,3.78,0.17,5.72,0.51C1095.27,157.53,1097.26,158.04,1099.29,158.72z M1157.46,160.48v5.7c-1.82-1.69-3.76-2.96-5.82-3.8
	c-2.06-0.84-4.25-1.26-6.57-1.26c-4.56,0-8.06,1.4-10.48,4.19c-2.43,2.79-3.64,6.83-3.64,12.1c0,5.26,1.21,9.29,3.64,12.08
	c2.42,2.79,5.92,4.19,10.48,4.19c2.32,0,4.51-0.42,6.57-1.26c2.06-0.84,4-2.1,5.82-3.8v5.64c-1.89,1.28-3.89,2.25-6,2.89
	c-2.11,0.64-4.35,0.96-6.7,0.96c-6.04,0-10.81-1.85-14.28-5.55c-3.48-3.7-5.22-8.75-5.22-15.15c0-6.42,1.74-11.48,5.22-15.18
	c3.48-3.7,8.24-5.55,14.28-5.55c2.39,0,4.64,0.32,6.75,0.95C1153.62,158.27,1155.6,159.22,1157.46,160.48z M1183.21,157.41h5.4
	v16.37h19.63v-16.37h5.4v39.93h-5.4v-19.02h-19.63v19.02h-5.4V157.41z M1258.03,156.68c5.6,0,10.07,1.88,13.43,5.63
	c3.35,3.75,5.03,8.79,5.03,15.1c0,6.29-1.68,11.32-5.03,15.07c-3.35,3.75-7.83,5.63-13.43,5.63c-5.62,0-10.11-1.87-13.47-5.62
	c-3.36-3.74-5.04-8.77-5.04-15.09s1.68-11.35,5.04-15.1C1247.92,158.56,1252.41,156.68,1258.03,156.68z M1258.03,161.07
	c-3.92,0-7.04,1.46-9.35,4.39c-2.31,2.92-3.46,6.91-3.46,11.96c0,5.03,1.15,9.01,3.46,11.93c2.31,2.92,5.43,4.39,9.35,4.39
	s7.03-1.46,9.32-4.39c2.29-2.92,3.44-6.9,3.44-11.93c0-5.05-1.15-9.03-3.44-11.96C1265.06,162.53,1261.95,161.07,1258.03,161.07z
	 M1318.56,156.68c5.6,0,10.07,1.88,13.43,5.63c3.35,3.75,5.03,8.79,5.03,15.1c0,6.29-1.68,11.32-5.03,15.07
	c-3.35,3.75-7.83,5.63-13.43,5.63c-5.62,0-10.11-1.87-13.47-5.62c-3.36-3.74-5.04-8.77-5.04-15.09s1.68-11.35,5.04-15.1
	C1308.46,158.56,1312.94,156.68,1318.56,156.68z M1318.56,161.07c-3.92,0-7.04,1.46-9.35,4.39c-2.31,2.92-3.46,6.91-3.46,11.96
	c0,5.03,1.15,9.01,3.46,11.93c2.31,2.92,5.43,4.39,9.35,4.39c3.92,0,7.03-1.46,9.32-4.39c2.29-2.92,3.44-6.9,3.44-11.93
	c0-5.05-1.15-9.03-3.44-11.96C1325.59,162.53,1322.48,161.07,1318.56,161.07z M1362.88,157.41h5.4v35.39h19.45v4.55h-24.85V157.41z"
	/>
<path class="st5" d="M472.99,18.87h31.31v121.42h-31.31V18.87z M625.22,84.82v55.46h-29.28v-9.03V97.84
	c0-7.86-0.18-13.28-0.53-16.27c-0.35-2.98-0.96-5.18-1.83-6.59c-1.14-1.9-2.68-3.38-4.64-4.43c-1.95-1.06-4.18-1.59-6.67-1.59
	c-6.07,0-10.84,2.35-14.31,7.03c-3.47,4.69-5.2,11.18-5.2,19.48v44.81h-29.11V49.2h29.11v13.34c4.39-5.31,9.05-9.23,13.99-11.75
	c4.93-2.52,10.38-3.78,16.35-3.78c10.52,0,18.5,3.23,23.95,9.68C622.49,63.14,625.22,72.52,625.22,84.82z M684.03,23.34V49.2h30.01
	v20.82h-30.01v38.63c0,4.23,0.84,7.09,2.52,8.58c1.68,1.49,5.01,2.24,10,2.24h14.96v20.82h-24.97c-11.5,0-19.64-2.4-24.44-7.2
	c-4.8-4.8-7.2-12.94-7.2-24.44V70.02h-14.48V49.2h14.48V23.34H684.03z M822.77,94.5v8.3H754.7c0.7,6.83,3.17,11.95,7.4,15.37
	c4.23,3.42,10.14,5.12,17.73,5.12c6.13,0,12.4-0.91,18.83-2.72c6.42-1.82,13.02-4.57,19.8-8.25v22.45
	c-6.89,2.6-13.77,4.57-20.66,5.9c-6.89,1.33-13.77,1.99-20.66,1.99c-16.48,0-29.29-4.19-38.43-12.56
	c-9.14-8.38-13.7-20.13-13.7-35.25c0-14.85,4.49-26.54,13.46-35.05c8.97-8.51,21.32-12.77,37.04-12.77
	c14.31,0,25.77,4.31,34.36,12.93C818.47,68.56,822.77,80.08,822.77,94.5z M792.84,84.82c0-5.53-1.61-9.99-4.84-13.38
	c-3.23-3.39-7.44-5.08-12.65-5.08c-5.64,0-10.22,1.59-13.74,4.76c-3.53,3.17-5.72,7.74-6.59,13.7H792.84z M912.43,74.01
	c-2.55-1.19-5.08-2.07-7.6-2.64c-2.52-0.57-5.06-0.85-7.6-0.85c-7.48,0-13.24,2.4-17.28,7.2c-4.04,4.8-6.06,11.67-6.06,20.62v41.96
	h-29.11V49.2h29.11v14.96c3.74-5.96,8.04-10.31,12.89-13.05c4.85-2.74,10.67-4.11,17.44-4.11c0.98,0,2.03,0.04,3.17,0.12
	c1.14,0.08,2.79,0.26,4.96,0.53L912.43,74.01z M928.18,18.87h34.97l44.16,83.28V18.87H1037v121.42h-34.97l-44.16-83.28v83.28h-29.68
	V18.87z M1157.21,94.5v8.3h-68.07c0.7,6.83,3.17,11.95,7.4,15.37c4.23,3.42,10.14,5.12,17.73,5.12c6.13,0,12.4-0.91,18.83-2.72
	c6.42-1.82,13.02-4.57,19.8-8.25v22.45c-6.89,2.6-13.77,4.57-20.66,5.9c-6.89,1.33-13.77,1.99-20.66,1.99
	c-16.48,0-29.29-4.19-38.43-12.56c-9.14-8.38-13.7-20.13-13.7-35.25c0-14.85,4.49-26.54,13.46-35.05
	c8.97-8.51,21.32-12.77,37.04-12.77c14.31,0,25.77,4.31,34.36,12.93C1152.92,68.56,1157.21,80.08,1157.21,94.5z M1127.28,84.82
	c0-5.53-1.61-9.99-4.84-13.38c-3.23-3.39-7.44-5.08-12.65-5.08c-5.64,0-10.22,1.59-13.74,4.76c-3.53,3.17-5.72,7.74-6.59,13.7
	H1127.28z M1202.23,93.69l-32.86-44.49h30.82l18.62,27l18.87-27h30.82l-32.86,44.32l34.48,46.76h-30.82l-20.49-28.79l-20.25,28.79
	h-30.82L1202.23,93.69z M1371.96,88.32v51.97h-29.36v-13.5c-3.9,5.53-8.3,9.56-13.17,12.08c-4.88,2.52-10.82,3.78-17.81,3.78
	c-9.43,0-17.09-2.75-22.97-8.25c-5.88-5.5-8.82-12.65-8.82-21.43c0-10.68,3.67-18.51,11.02-23.5c7.35-4.99,18.88-7.48,34.6-7.48
	h17.16V79.7c0-4.61-1.82-7.98-5.45-10.13c-3.63-2.14-9.3-3.21-17-3.21c-6.24,0-12.04,0.62-17.4,1.87
	c-5.37,1.25-10.36,3.12-14.96,5.61v-22.2c6.23-1.52,12.5-2.67,18.79-3.46c6.29-0.79,12.58-1.18,18.87-1.18
	c16.43,0,28.29,3.24,35.58,9.72C1368.31,63.21,1371.96,73.74,1371.96,88.32z M1327.47,99.3c-6.07,0-10.64,1.03-13.7,3.09
	c-3.06,2.06-4.59,5.1-4.59,9.11c0,3.69,1.23,6.57,3.7,8.66c2.47,2.09,5.9,3.13,10.29,3.13c5.48,0,10.08-1.96,13.83-5.9
	c3.74-3.93,5.61-8.85,5.61-14.76V99.3H1327.47z"/>
<g>
	<path class="st0" d="M-304.32,225.04c-0.14,0.31-0.29,0.6-0.42,0.91c92.89-22.84,196.98-9.47,240.53-1.97l-75.44-48.24
		C-183.48,180.24-246.95,187.71-304.32,225.04"/>
	<path class="st1" d="M-174.99,127.68c-0.55,0.22-1.08,0.43-1.64,0.65c-32.67,12.92-76.04,30.11-116.54,74.25
		c-1.56,2.89-3.1,5.87-4.65,8.95c57.79-33.66,119.43-39.99,161.46-44.28c23.86-2.45,43.4-4.44,49.11-10.34L-174.99,127.68z"/>
	<path class="st2" d="M-124.09,81.21l-60.09,0.08c-7.09,6.93-15.02,13.47-23.49,20.45c-20.91,17.22-45.38,37.39-69.58,74.02
		c34.89-30.14,69.99-44.04,97.63-54.98C-150.07,109.11-129.85,101.1-124.09,81.21"/>
	<path class="st3" d="M-307.81,195.37v18.04c32-66.04,66.69-94.62,94.99-117.93c25.12-20.68,43.7-35.99,51.07-69.3l-101.21,37.25
		c-5.42,31.86-15.62,47.82-24.66,61.94C-298.46,142.31-307.81,156.93-307.81,195.37"/>
	<path class="st0" d="M-323.98,223.71c0.15,0.31,0.3,0.6,0.43,0.92c-92.89-22.85-197-9.49-240.53-1.98l75.44-48.24
		C-444.82,178.92-381.35,186.39-323.98,223.71"/>
	<path class="st1" d="M-453.29,126.36c0.55,0.22,1.08,0.43,1.64,0.66c32.67,12.91,76.03,30.09,116.54,74.24
		c1.55,2.89,3.1,5.87,4.65,8.95c-57.79-33.66-119.43-39.98-161.46-44.28c-23.86-2.45-43.4-4.44-49.11-10.34L-453.29,126.36z"/>
	<path class="st2" d="M-504.2,79.89l60.09,0.09c7.09,6.92,15.01,13.46,23.49,20.44c20.91,17.22,45.38,37.39,69.57,74.03
		c-34.87-30.14-69.98-44.04-97.61-54.97C-478.21,107.79-498.44,99.8-504.2,79.89"/>
	<path class="st3" d="M-320.48,194.05v18.04c-32-66.04-66.69-94.61-95-117.92c-25.11-20.69-43.69-35.99-51.06-69.31l101.2,37.24
		c5.42,31.86,15.63,47.82,24.66,61.94C-329.84,140.99-320.48,155.61-320.48,194.05"/>
</g>
<path class="st4" d="M-373.95,338.89v2.58c-1-0.48-1.95-0.84-2.84-1.07s-1.75-0.35-2.58-0.35c-1.44,0-2.55,0.28-3.33,0.84
	c-0.78,0.56-1.17,1.35-1.17,2.38c0,0.86,0.26,1.52,0.78,1.96c0.52,0.44,1.5,0.8,2.95,1.07l1.6,0.33c1.97,0.38,3.42,1.04,4.36,1.98
	c0.94,0.95,1.41,2.21,1.41,3.8c0,1.89-0.63,3.33-1.9,4.3c-1.27,0.98-3.13,1.46-5.58,1.46c-0.92,0-1.91-0.1-2.95-0.31
	c-1.04-0.21-2.12-0.52-3.24-0.93v-2.72c1.07,0.6,2.12,1.06,3.15,1.36c1.03,0.31,2.04,0.46,3.03,0.46c1.51,0,2.67-0.3,3.49-0.89
	c0.82-0.59,1.23-1.44,1.23-2.54c0-0.96-0.29-1.71-0.88-2.25c-0.59-0.54-1.55-0.95-2.9-1.22l-1.61-0.31
	c-1.97-0.39-3.4-1.01-4.28-1.84c-0.88-0.84-1.32-2-1.32-3.49c0-1.73,0.61-3.09,1.82-4.08c1.22-0.99,2.89-1.49,5.03-1.49
	c0.92,0,1.85,0.08,2.8,0.25C-375.91,338.31-374.94,338.56-373.95,338.89z M-345.5,339.75v2.79c-0.89-0.83-1.84-1.45-2.84-1.86
	c-1.01-0.41-2.08-0.61-3.21-0.61c-2.23,0-3.94,0.68-5.13,2.05c-1.19,1.36-1.78,3.34-1.78,5.92c0,2.57,0.59,4.54,1.78,5.91
	c1.19,1.36,2.89,2.05,5.13,2.05c1.13,0,2.2-0.2,3.21-0.61c1.01-0.41,1.96-1.03,2.84-1.86v2.76c-0.92,0.63-1.9,1.1-2.94,1.41
	c-1.03,0.31-2.13,0.47-3.28,0.47c-2.96,0-5.28-0.9-6.98-2.71c-1.7-1.81-2.55-4.28-2.55-7.41c0-3.14,0.85-5.61,2.55-7.42
	c1.7-1.81,4.03-2.71,6.98-2.71c1.17,0,2.27,0.15,3.3,0.46C-347.38,338.67-346.41,339.13-345.5,339.75z M-332.91,338.25h2.64v8.01
	h9.6v-8.01h2.64v19.53h-2.64v-9.3h-9.6v9.3h-2.64V338.25z M-296.32,337.9c2.74,0,4.93,0.92,6.57,2.75c1.64,1.84,2.46,4.3,2.46,7.38
	c0,3.08-0.82,5.54-2.46,7.37c-1.64,1.84-3.83,2.75-6.57,2.75c-2.75,0-4.94-0.92-6.59-2.75c-1.64-1.83-2.47-4.29-2.47-7.38
	s0.82-5.55,2.47-7.38C-301.26,338.81-299.07,337.9-296.32,337.9z M-296.32,340.04c-1.92,0-3.44,0.72-4.57,2.15
	c-1.13,1.43-1.69,3.38-1.69,5.85c0,2.46,0.56,4.4,1.69,5.83c1.13,1.43,2.65,2.15,4.57,2.15c1.92,0,3.44-0.71,4.56-2.15
	c1.12-1.43,1.68-3.37,1.68-5.83c0-2.47-0.56-4.42-1.68-5.85C-292.88,340.76-294.4,340.04-296.32,340.04z M-266.72,337.9
	c2.74,0,4.93,0.92,6.57,2.75c1.64,1.84,2.46,4.3,2.46,7.38c0,3.08-0.82,5.54-2.46,7.37c-1.64,1.84-3.83,2.75-6.57,2.75
	c-2.75,0-4.94-0.92-6.59-2.75c-1.64-1.83-2.47-4.29-2.47-7.38s0.82-5.55,2.47-7.38C-271.66,338.81-269.47,337.9-266.72,337.9z
	 M-266.72,340.04c-1.92,0-3.44,0.72-4.57,2.15c-1.13,1.43-1.69,3.38-1.69,5.85c0,2.46,0.56,4.4,1.69,5.83
	c1.13,1.43,2.65,2.15,4.57,2.15c1.92,0,3.44-0.71,4.56-2.15c1.12-1.43,1.68-3.37,1.68-5.83c0-2.47-0.56-4.42-1.68-5.85
	C-263.28,340.76-264.8,340.04-266.72,340.04z M-245.05,338.25h2.64v17.3h9.51v2.22h-12.15V338.25z"/>
<path class="st5" d="M-501.11,258.01h13.7v53.12h-13.7V258.01z M-434.5,286.87v24.27h-12.81v-3.95v-14.62
	c0-3.44-0.08-5.81-0.23-7.12c-0.15-1.3-0.42-2.27-0.8-2.88c-0.5-0.83-1.17-1.48-2.03-1.94c-0.85-0.46-1.83-0.69-2.92-0.69
	c-2.66,0-4.74,1.03-6.26,3.08c-1.52,2.05-2.28,4.89-2.28,8.52v19.61h-12.74v-39.85h12.74v5.84c1.92-2.32,3.96-4.04,6.12-5.14
	c2.16-1.1,4.54-1.65,7.15-1.65c4.6,0,8.1,1.41,10.48,4.23C-435.69,277.38-434.5,281.49-434.5,286.87z M-408.77,259.97v11.32h13.13
	v9.11h-13.13v16.9c0,1.85,0.37,3.1,1.1,3.75c0.73,0.65,2.19,0.98,4.38,0.98h6.55v9.11h-10.92c-5.03,0-8.59-1.05-10.69-3.15
	s-3.15-5.66-3.15-10.69v-16.9h-6.33v-9.11h6.33v-11.32H-408.77z M-348.07,291.11v3.63h-29.78c0.31,2.99,1.39,5.23,3.24,6.73
	c1.85,1.49,4.44,2.24,7.76,2.24c2.68,0,5.43-0.4,8.24-1.19c2.81-0.79,5.7-2,8.66-3.61v9.82c-3.01,1.14-6.03,2-9.04,2.58
	c-3.01,0.58-6.03,0.87-9.04,0.87c-7.21,0-12.82-1.83-16.81-5.5c-4-3.66-6-8.81-6-15.42c0-6.5,1.96-11.61,5.89-15.34
	c3.93-3.72,9.33-5.59,16.21-5.59c6.26,0,11.27,1.89,15.03,5.66C-349.95,279.76-348.07,284.8-348.07,291.11z M-361.16,286.87
	c0-2.42-0.71-4.37-2.12-5.85c-1.41-1.48-3.26-2.22-5.53-2.22c-2.47,0-4.47,0.69-6.01,2.08c-1.54,1.39-2.5,3.39-2.88,6H-361.16z
	 M-308.84,282.14c-1.12-0.52-2.22-0.91-3.33-1.16c-1.1-0.25-2.21-0.37-3.33-0.37c-3.27,0-5.79,1.05-7.56,3.15
	c-1.77,2.1-2.65,5.11-2.65,9.02v18.36h-12.74v-39.85h12.74v6.55c1.64-2.61,3.52-4.51,5.64-5.71c2.12-1.2,4.67-1.8,7.63-1.8
	c0.43,0,0.89,0.02,1.39,0.05c0.5,0.04,1.22,0.11,2.17,0.23L-308.84,282.14z M-301.95,258.01h15.3l19.32,36.44v-36.44h12.99v53.12
	h-15.3l-19.32-36.44v36.44h-12.99V258.01z M-201.74,291.11v3.63h-29.78c0.31,2.99,1.39,5.23,3.24,6.73
	c1.85,1.49,4.44,2.24,7.76,2.24c2.68,0,5.43-0.4,8.24-1.19c2.81-0.79,5.7-2,8.66-3.61v9.82c-3.01,1.14-6.03,2-9.04,2.58
	c-3.01,0.58-6.03,0.87-9.04,0.87c-7.21,0-12.82-1.83-16.81-5.5c-4-3.66-6-8.81-6-15.42c0-6.5,1.96-11.61,5.89-15.34
	c3.93-3.72,9.33-5.59,16.21-5.59c6.26,0,11.27,1.89,15.03,5.66C-203.62,279.76-201.74,284.8-201.74,291.11z M-214.83,286.87
	c0-2.42-0.71-4.37-2.12-5.85c-1.41-1.48-3.26-2.22-5.53-2.22c-2.47,0-4.47,0.69-6.01,2.08c-1.54,1.39-2.5,3.39-2.88,6H-214.83z
	 M-182.04,290.75l-14.38-19.46h13.49l8.15,11.81l8.26-11.81h13.49l-14.38,19.39l15.09,20.46h-13.49l-8.97-12.6l-8.86,12.6h-13.49
	L-182.04,290.75z M-107.78,288.4v22.74h-12.85v-5.91c-1.71,2.42-3.63,4.18-5.76,5.28c-2.13,1.1-4.73,1.65-7.79,1.65
	c-4.13,0-7.48-1.2-10.05-3.61c-2.57-2.41-3.86-5.53-3.86-9.38c0-4.67,1.61-8.1,4.82-10.28c3.21-2.18,8.26-3.27,15.14-3.27h7.51v-1
	c0-2.02-0.8-3.49-2.38-4.43c-1.59-0.94-4.07-1.41-7.44-1.41c-2.73,0-5.27,0.27-7.61,0.82c-2.35,0.55-4.53,1.36-6.55,2.46v-9.71
	c2.73-0.66,5.47-1.17,8.22-1.51c2.75-0.34,5.5-0.52,8.26-0.52c7.19,0,12.38,1.42,15.57,4.25
	C-109.38,277.41-107.78,282.02-107.78,288.4z M-127.25,293.21c-2.66,0-4.66,0.45-6,1.35c-1.34,0.9-2.01,2.23-2.01,3.99
	c0,1.61,0.54,2.88,1.62,3.79c1.08,0.91,2.58,1.37,4.5,1.37c2.4,0,4.41-0.86,6.05-2.58c1.64-1.72,2.46-3.87,2.46-6.46v-1.46H-127.25z
	"/>
</svg>
